<svg width="663" height="179" viewBox="0 0 663 179" fill="none" xmlns="http://www.w3.org/2000/svg">
<g clip-path="url(#clip0_156_2414)">
<path d="M91.087 102.747C90.3633 102.015 90.9732 100.852 92.1115 100.104C105.935 91.0298 115.806 84.1996 126.832 71.4253C148.591 46.2265 169.846 -1.04865 115.034 2.708C67.1404 5.9849 20.6946 62.9282 7.74151 106.008C-15.3106 182.677 60.0581 190.28 109.716 157.568C126.279 146.656 142.086 129.71 153.543 113.578C158.723 106.292 164.415 94.1116 169.594 88.1595C178.205 78.2637 192.386 81.7114 183.157 95.8517C191.711 105.194 207.706 106.935 216.723 97.0714C221.22 92.1519 222.147 85.7608 224.846 79.9876C227.952 79.9632 224.765 85.8746 225.245 86.4844C228.611 83.915 234.539 79.0118 238.271 83.6141C243.19 89.6719 234.311 104.349 245.557 109.667C257.03 115.09 274.902 110.106 283.7 101.438C288.904 96.307 293.076 84.5086 302.736 87.4521C305.801 88.3872 307.647 96.2176 303.305 96.2338C303.378 93.7538 303.842 90.9648 301.093 89.8671C290.986 86.9235 285.489 111.073 283.774 117.774C289.197 117.473 296.41 114.887 301.41 112.643C324.552 102.259 329.951 78.9956 343.945 60.0334C344.213 58.269 343.693 59.0739 342.774 58.7975C336.375 56.8866 313.941 52.5039 308.525 54.6912C305.639 55.854 306.484 58.6267 303.305 58.0087C302.793 50.5849 312.314 51.1622 317.559 51.4793C321.812 51.7314 344.978 57.098 346.279 56.2687C351.938 46.2753 358.467 35.477 365.932 26.7278C369.404 22.654 374.99 15.2952 380.877 17.2711C385.073 20.3366 371.965 35.0217 369.583 37.6968C363.924 44.0474 357.321 49.9995 351.019 55.7239C350.23 56.4475 349.271 56.4394 349.653 58.0087C363.127 59.0252 383.642 65.3513 396.042 58.4641C398.197 57.2688 399.969 54.6587 401.409 54.0732C405.206 52.5283 402.181 57.22 400.913 58.456C389.391 69.6365 360.785 61.5865 346.547 59.7814C338.676 76.3773 322.844 94.0221 318.486 111.83C311.916 138.703 334.48 140.273 353.45 131.345C364.964 125.929 385.203 107.406 390.179 95.7053C391.911 91.6397 389.7 86.6389 395.993 87.2894V91.3632C413.207 89.737 402.823 97.1771 401.758 105.658C400.287 117.367 412.833 121.132 422.452 120.66C438.382 119.888 451.457 109.024 460.084 96.4859C463.345 91.7454 467.247 85.5575 468.386 79.9713H470.801C471.752 85.159 460.084 97.8764 463.019 101.975C465.995 106.13 476.054 97.4047 477.656 94.5425C479.697 90.8835 478.249 84.785 483.396 83.2238C487.234 86.9561 480.615 92.4121 480.526 95.7866C480.371 101.21 484.445 107.553 489.324 109.837C504.269 116.83 524.378 108.845 534.217 96.6241C536.315 94.0221 542.462 81.2235 544.389 81.6057C545.828 81.8903 545.291 82.8498 544.966 83.7686C542.982 89.3548 537.42 95.4776 535.233 101.706C528.167 121.855 542.657 129.678 560.229 121.823C568.661 118.058 577.475 109.594 582.882 102.194C586.785 96.8599 587.517 95.7378 588.729 89.3385C589.485 85.3461 595.543 87.1919 592.778 91.3469L602.617 91.8348C604.479 94.388 599.69 101.584 599.283 105.577C598.551 112.732 600.804 115.993 607.422 118.587C627.808 126.588 650.697 110.049 659.56 92.282L660.674 92.1682C663.081 91.8511 661.682 94.7052 661.138 95.8842C652.722 114.098 619.936 131.881 601.779 118.538C592.672 111.846 597.519 102.438 600.096 93.7945C589.721 91.534 587.769 100.747 582.232 107.227C572.515 118.587 553.797 133.459 538.258 125.132C530.411 120.928 529.964 111.334 531.785 103.544C520.995 112.057 506.513 117.188 492.723 113.749C485.836 112.033 478.81 106.308 478.932 98.6732C478.054 97.7625 474.631 101.885 473.517 102.601C470.549 104.495 466.15 106.325 462.686 104.755C460.905 103.95 460.978 101.56 459.433 101.113C449.237 117.05 425.884 128.645 407.385 120.213C395.416 114.757 398.766 103.414 403.319 93.7945C400.384 93.8514 395.457 93.2171 393.18 95.437C381.707 115.977 355.109 141.411 329.732 138.508C320.511 137.451 313.599 128.588 314.656 119.359L317.543 105.17C307.615 113.806 295.353 117.936 282.993 121.847C279.667 131.719 273.544 161.634 257.485 152.201C249.964 147.786 252.55 138.931 256.973 133.239C262.657 125.929 271.861 123.043 280.123 119.798L284.587 104.349C273.479 115.643 237.417 121.441 236.596 99.0229C236.442 94.7946 240.548 84.0939 233.043 84.8338C225.537 85.5737 215.926 105.975 211.812 111.667L209.885 109.756L213.04 103.544C202.51 108.349 189.727 106.528 181.742 97.8601C177.734 101.779 173.066 107.805 166.643 105.625C164.976 105.056 163.943 102.21 163.455 102.731C162.073 104.211 158.869 110.618 157.121 113.066C144.761 130.385 129.735 147.071 111.992 159.007C60.7005 193.549 -18.0346 185.466 5.12324 105.829C17.9463 61.7166 65.4572 3.80572 114.22 0.268616C183.873 -4.78903 142.168 63.5461 114.668 87.7204C112.139 89.9484 93.071 104.772 91.0789 102.747H91.087ZM378.926 19.8162C375.885 16.9621 362.94 34.9729 361.191 37.4448C360.289 38.7214 354.02 47.6902 354.54 48.2675C357.679 46.5518 381.438 22.1743 378.926 19.8162ZM182.962 84.8663C178.994 84.3459 179.165 91.6885 180.539 92.9895C182.865 95.2012 183.426 85.7445 182.962 84.8663ZM177.27 86.4926C172.757 85.9234 165.382 98.8602 166 101.365C167.407 107.081 177.547 100.039 179.352 97.0388C179.1 93.4529 176.197 90.7534 177.27 86.4926ZM279.724 123.091C270.243 125.051 252.793 134.386 255.509 146.087C256.217 149.136 260.843 151.453 263.763 151.283C273.658 150.705 277.252 130.475 279.732 123.091H279.724Z" fill="#C17F6F"/>
<path d="M553.48 61.391C559.667 59.35 559.919 67.9529 554.846 68.4164C550.333 68.8311 550.544 62.3586 553.48 61.391Z" fill="#C17F6F"/>
</g>
<defs>
<clipPath id="clip0_156_2414">
<rect width="661.08" height="178.4" fill="white" transform="translate(0.959961)"/>
</clipPath>
</defs>
</svg>
