<svg width="53" height="53" viewBox="0 0 53 53" fill="none" xmlns="http://www.w3.org/2000/svg">
<path d="M46.619 37.3051C46.3329 37.1865 46.0037 37.252 45.7847 37.4709L37.4185 45.837C37.1996 46.0561 37.1341 46.3853 37.2527 46.6714C37.3711 46.9575 37.6504 47.1439 37.96 47.1439H46.3261C46.749 47.1439 47.0917 46.8012 47.0917 46.3784V38.0122C47.0916 37.7027 46.905 37.4235 46.619 37.3051ZM39.8079 45.6129L45.5604 39.8605V45.6129H39.8079Z" fill="white"/>
<path d="M52.1534 25.0344C51.8673 24.9158 51.5381 24.9813 51.3191 25.2002L49.0263 27.493V11.9038C49.0263 11.4809 48.6835 11.1382 48.2608 11.1382H42.3787L44.5139 9.00304C44.5142 9.00274 44.5145 9.00233 44.5148 9.00202L46.5722 6.94466C47.013 6.50387 47.2557 5.91751 47.2557 5.29407C47.2557 4.67063 47.013 4.08447 46.5722 3.64348L44.1931 1.26442C43.7523 0.823627 43.166 0.580872 42.5425 0.580872C41.9191 0.580872 41.3328 0.823627 40.8919 1.26442L38.8335 3.32279L36.3463 5.81004L31.0182 11.1381H7.2553V3.56463C7.2553 3.14177 6.91251 2.79908 6.48975 2.79908C3.16982 2.79929 0.46875 5.50015 0.46875 8.82029V41.3356C0.46875 41.3922 0.47527 41.4472 0.486883 41.5001C0.592623 42.9089 1.20211 44.2178 2.2207 45.2115C3.30948 46.2733 4.74676 46.8582 6.26788 46.8582H29.661L25.2552 51.2639C25.0363 51.483 24.9708 51.8121 25.0893 52.0983C25.2078 52.3843 25.487 52.5708 25.7966 52.5708H51.8604C52.2832 52.5708 52.626 52.2281 52.626 51.8053V25.7416C52.626 25.4321 52.4393 25.1528 52.1534 25.0344ZM41.9748 2.34719C42.2877 2.03404 42.7976 2.03404 43.1105 2.34719L45.4897 4.72635C45.8028 5.0394 45.8028 5.54905 45.4897 5.8622L43.9728 7.37924L40.4576 3.86423L41.9748 2.34719ZM39.375 4.9469L42.89 8.46181L41.4853 9.86649L37.9705 6.35158L39.375 4.9469ZM51.0951 34.3437H49.6827C49.2598 34.3437 48.9171 34.6864 48.9171 35.1093C48.9171 35.5321 49.2598 35.8748 49.6827 35.8748H51.0951V38.1818H49.6827C49.2598 38.1818 48.9171 38.5244 48.9171 38.9473C48.9171 39.3702 49.2598 39.7128 49.6827 39.7128H51.0951V42.0197H49.6827C49.2598 42.0197 48.9171 42.3624 48.9171 42.7852C48.9171 43.2081 49.2598 43.5508 49.6827 43.5508H51.0951V45.8577H49.6827C49.2598 45.8577 48.9171 46.2005 48.9171 46.6233C48.9171 47.0461 49.2598 47.3888 49.6827 47.3888H51.0951V51.04H27.6447L35.3774 43.3074C35.6764 43.0083 35.6764 42.5237 35.3774 42.2248C35.3431 42.1904 35.3062 42.1607 35.2676 42.1342C34.9695 41.93 34.5594 41.9601 34.2946 42.2248L31.1921 45.3273H6.26798C3.94617 45.3273 2.07707 43.5146 2.00352 41.197C2.0079 41.0515 2.0192 40.9073 2.03734 40.7647C2.03744 40.7638 2.03754 40.763 2.03764 40.7622C2.0462 40.6945 2.05649 40.627 2.0682 40.56C2.06953 40.5524 2.07095 40.5447 2.07228 40.5371C2.08298 40.4773 2.095 40.4178 2.10814 40.3585C2.1118 40.342 2.11568 40.3255 2.11955 40.3091C2.13116 40.259 2.14369 40.2092 2.15714 40.1595C2.16447 40.1327 2.17211 40.1061 2.17996 40.0793C2.19116 40.0404 2.20277 40.0015 2.2151 39.9631C2.22743 39.9247 2.24057 39.8867 2.25391 39.8487C2.26318 39.8222 2.27235 39.7956 2.28233 39.7692C2.30098 39.7191 2.32074 39.6695 2.34111 39.6203C2.34692 39.6061 2.35262 39.5917 2.35863 39.5776C2.38481 39.5164 2.41201 39.456 2.44074 39.3963C2.44196 39.3938 2.44308 39.3912 2.44431 39.3887C3.0431 38.1496 4.19473 37.2257 5.5768 36.939C5.58067 36.9382 5.58454 36.9373 5.58841 36.9365C5.65177 36.9236 5.71575 36.9125 5.78013 36.9022C5.79082 36.9004 5.80152 36.8983 5.81242 36.8967C5.87059 36.8878 5.92937 36.8809 5.98815 36.8743C6.00465 36.8724 6.02105 36.8699 6.03765 36.8682C6.0944 36.8625 6.15165 36.8588 6.2089 36.8552C6.22703 36.8541 6.24516 36.8521 6.2633 36.8512C6.33827 36.8475 6.41386 36.8455 6.48975 36.8455C6.91251 36.8455 7.2553 36.5028 7.2553 36.08V30.5292C7.2553 30.1063 6.91251 29.7637 6.48975 29.7637C6.06699 29.7637 5.7242 30.1063 5.7242 30.5292V35.3626C4.43148 35.5261 3.23155 36.1027 2.28539 37.0266C2.18586 37.1238 2.09153 37.2249 1.99965 37.3276V8.82029C1.99965 6.60554 3.61183 4.75997 5.7241 4.39548V11.9038V27.4671V27.4672C5.7241 27.89 6.06689 28.2328 6.48965 28.2328C6.91241 28.2328 7.2552 27.89 7.2552 27.4672V27.4671V12.6693H29.4872L25.2551 16.9014C24.9562 17.2005 24.9562 17.6851 25.2551 17.9841C25.5541 18.283 26.0388 18.283 26.3377 17.9841L31.8767 12.4451C31.8769 12.4449 31.877 12.4447 31.8772 12.4446L36.8876 7.43415L40.4024 10.9492L39.9901 11.3615C39.9898 11.3618 39.9894 11.3621 39.9891 11.3624L24.553 26.7987L21.0381 23.2838L24.0807 20.2412C24.3797 19.9421 24.3797 19.4575 24.0807 19.1585C23.7817 18.8596 23.297 18.8596 22.9981 19.1585L19.414 22.7425C19.3949 22.7616 19.377 22.7819 19.3602 22.8027C19.3546 22.8096 19.3496 22.8171 19.3443 22.8243C19.3335 22.8387 19.3229 22.8531 19.313 22.8682C19.3074 22.877 19.3023 22.8859 19.297 22.895C19.2885 22.9093 19.2804 22.9237 19.273 22.9385C19.2681 22.9481 19.2637 22.9577 19.2592 22.9677C19.2524 22.9827 19.2461 22.998 19.2403 23.0133C19.2382 23.0187 19.2356 23.0238 19.2336 23.0292L17.7422 27.2542L16.7253 30.135C16.7119 30.1733 16.7022 30.2122 16.6949 30.2514H14.149C13.7263 30.2514 13.3835 30.5941 13.3835 31.017C13.3835 31.4398 13.7263 31.7825 14.149 31.7825H35.3495C35.7724 31.7825 36.1151 31.4398 36.1151 31.017C36.1151 30.5941 35.7724 30.2514 35.3495 30.2514H20.1391L24.8077 28.6034C24.8116 28.6019 24.8153 28.6 24.8191 28.5986C24.8373 28.5919 24.8551 28.5843 24.8727 28.5763C24.8798 28.573 24.8868 28.5699 24.8936 28.5666C24.9119 28.5574 24.93 28.5473 24.9477 28.5365C24.9534 28.5331 24.9593 28.5299 24.9649 28.5263C24.9834 28.5145 25.0013 28.5016 25.0189 28.4879C25.0233 28.4846 25.0279 28.4816 25.0322 28.4782C25.0534 28.461 25.0743 28.4426 25.0941 28.4228L40.8476 12.6694H47.4951V29.0242L36.5445 39.9749C36.2455 40.2739 36.2455 40.7585 36.5445 41.0575C36.5632 41.0762 36.5826 41.0937 36.6027 41.1101C36.7431 41.2245 36.9145 41.2817 37.0859 41.2817C37.2572 41.2817 37.4288 41.2245 37.569 41.1101C37.5891 41.0938 37.6086 41.0762 37.6272 41.0575C37.6275 41.0572 37.6272 41.0575 37.6275 41.0572L51.0951 27.5896V34.3437ZM23.1528 27.5637L20.9599 28.3378L19.4989 26.8768L20.273 24.6839L23.1528 27.5637Z" fill="white"/>
</svg>
