<svg width="39" height="39" viewBox="0 0 39 39" fill="none" xmlns="http://www.w3.org/2000/svg">
<g clip-path="url(#clip0_156_2441)">
<path d="M19.009 33.3918L26.8504 25.5504C28.4011 23.9996 29.4571 22.0238 29.8848 19.8728C30.3126 17.7218 30.093 15.4923 29.2536 13.4661C28.4143 11.44 26.993 9.70819 25.1695 8.48978C23.346 7.27138 21.2021 6.62106 19.009 6.62106C16.8159 6.62106 14.672 7.27138 12.8485 8.48978C11.025 9.70819 9.60371 11.44 8.76439 13.4661C7.92507 15.4923 7.70541 17.7218 8.13318 19.8728C8.56095 22.0238 9.61695 23.9996 11.1676 25.5504L19.009 33.3918ZM19.009 37.8717L8.92769 27.7904C6.93382 25.7965 5.57599 23.2561 5.02589 20.4905C4.47579 17.725 4.75814 14.8583 5.83723 12.2532C6.91632 9.64809 8.74368 7.42146 11.0882 5.85488C13.4328 4.28831 16.1892 3.45215 19.009 3.45215C21.8288 3.45215 24.5852 4.28831 26.9298 5.85488C29.2743 7.42146 31.1017 9.64809 32.1808 12.2532C33.2599 14.8583 33.5422 17.725 32.9921 20.4905C32.442 23.2561 31.0842 25.7965 29.0903 27.7904L19.009 37.8717ZM19.009 20.8773C19.8493 20.8773 20.6551 20.5435 21.2493 19.9494C21.8434 19.3552 22.1772 18.5493 22.1772 17.7091C22.1772 16.8688 21.8434 16.063 21.2493 15.4688C20.6551 14.8746 19.8493 14.5408 19.009 14.5408C18.1687 14.5408 17.3629 14.8746 16.7687 15.4688C16.1746 16.063 15.8408 16.8688 15.8408 17.7091C15.8408 18.5493 16.1746 19.3552 16.7687 19.9494C17.3629 20.5435 18.1687 20.8773 19.009 20.8773ZM19.009 24.0455C17.3285 24.0455 15.7168 23.3779 14.5285 22.1896C13.3401 21.0013 12.6725 19.3896 12.6725 17.7091C12.6725 16.0285 13.3401 14.4168 14.5285 13.2285C15.7168 12.0402 17.3285 11.3726 19.009 11.3726C20.6895 11.3726 22.3012 12.0402 23.4896 13.2285C24.6779 14.4168 25.3455 16.0285 25.3455 17.7091C25.3455 19.3896 24.6779 21.0013 23.4896 22.1896C22.3012 23.3779 20.6895 24.0455 19.009 24.0455Z" fill="white"/>
</g>
<defs>
<clipPath id="clip0_156_2441">
<rect width="38.0188" height="38.0188" fill="white" transform="translate(0 0.28418)"/>
</clipPath>
</defs>
</svg>
