<svg width="39" height="39" viewBox="0 0 39 39" fill="none" xmlns="http://www.w3.org/2000/svg">
<g clip-path="url(#clip0_156_2430)">
<path d="M25.504 5.50173C25.2916 6.54713 25.2916 7.62456 25.504 8.66996H7.14569L19.1058 19.2233L27.104 12.0631C27.7788 12.898 28.6216 13.5934 29.5799 14.0987L19.1232 23.4624L6.3362 12.1804V30.8476H31.6821V14.848C32.7275 15.0604 33.8049 15.0604 34.8503 14.848V32.4317C34.8503 32.8518 34.6834 33.2548 34.3863 33.5519C34.0892 33.8489 33.6863 34.0158 33.2662 34.0158H4.75209C4.33195 34.0158 3.92903 33.8489 3.63195 33.5519C3.33487 33.2548 3.16797 32.8518 3.16797 32.4317V7.08585C3.16797 6.66571 3.33487 6.26279 3.63195 5.96571C3.92903 5.66863 4.33195 5.50173 4.75209 5.50173H25.504ZM33.2662 11.8382C32.6421 11.8382 32.0241 11.7153 31.4475 11.4764C30.871 11.2376 30.3471 10.8876 29.9058 10.4463C29.4645 10.005 29.1144 9.48107 28.8756 8.90449C28.6368 8.32791 28.5138 7.70993 28.5138 7.08585C28.5138 6.46176 28.6368 5.84378 28.8756 5.2672C29.1144 4.69062 29.4645 4.16672 29.9058 3.72543C30.3471 3.28413 30.871 2.93408 31.4475 2.69525C32.0241 2.45642 32.6421 2.3335 33.2662 2.3335C34.5266 2.3335 35.7354 2.83419 36.6266 3.72543C37.5178 4.61667 38.0185 5.82544 38.0185 7.08585C38.0185 8.34625 37.5178 9.55503 36.6266 10.4463C35.7354 11.3375 34.5266 11.8382 33.2662 11.8382Z" fill="white"/>
</g>
<defs>
<clipPath id="clip0_156_2430">
<rect width="38.0188" height="38.0188" fill="white" transform="translate(0 0.749023)"/>
</clipPath>
</defs>
</svg>
