<svg width="39" height="39" viewBox="0 0 39 39" fill="none" xmlns="http://www.w3.org/2000/svg">
<g clip-path="url(#clip0_156_2436)">
<path d="M14.8364 17.2497C16.3229 19.8611 18.4855 22.0237 21.0969 23.5102L22.4972 21.549C22.7224 21.2337 23.0554 21.0118 23.4331 20.9254C23.8109 20.839 24.2072 20.8941 24.5471 21.0801C26.7875 22.3045 29.2617 23.0409 31.8071 23.2409C32.2043 23.2724 32.5751 23.4524 32.8455 23.7451C33.116 24.0379 33.2661 24.4217 33.266 24.8202V31.8886C33.2661 32.2808 33.1207 32.6591 32.8579 32.9503C32.5951 33.2414 32.2337 33.4248 31.8435 33.4648C31.0039 33.5519 30.158 33.5947 29.3058 33.5947C15.7457 33.5947 4.75195 22.6009 4.75195 9.04086C4.75195 8.1886 4.79472 7.34268 4.88185 6.5031C4.92186 6.11293 5.10519 5.75147 5.39636 5.48869C5.68752 5.2259 6.06583 5.08048 6.45805 5.08057H13.5264C13.9249 5.08052 14.3088 5.23066 14.6015 5.50107C14.8942 5.77148 15.0743 6.14228 15.1057 6.53954C15.3057 9.08488 16.0421 11.5591 17.2665 13.7995C17.4526 14.1394 17.5076 14.5357 17.4212 14.9135C17.3348 15.2912 17.1129 15.6242 16.7976 15.8494L14.8364 17.2497ZM10.8413 16.209L13.8511 14.0593C12.9969 12.2156 12.4117 10.2588 12.1133 8.2488H7.93603C7.92652 8.51176 7.92177 8.77631 7.92177 9.04086C7.92019 20.852 17.4946 30.4264 29.3058 30.4264C29.5703 30.4264 29.8349 30.4217 30.0978 30.4106V26.2333C28.0878 25.9349 26.131 25.3497 24.2873 24.4955L22.1376 27.5053C21.2722 27.169 20.4315 26.772 19.6221 26.3172L19.5302 26.265C16.4231 24.4966 13.85 21.9236 12.0817 18.8164L12.0294 18.7246C11.5746 17.9151 11.1776 17.0744 10.8413 16.209Z" fill="white"/>
</g>
<defs>
<clipPath id="clip0_156_2436">
<rect width="38.0188" height="38.0188" fill="white" transform="translate(0 0.329102)"/>
</clipPath>
</defs>
</svg>
