<svg width="60" height="53" viewBox="0 0 60 53" fill="none" xmlns="http://www.w3.org/2000/svg">
<path d="M11.2797 51.415C11.2797 51.9614 10.8367 52.4044 10.2902 52.4044H1.01389C0.467451 52.4044 0.0244141 51.9614 0.0244141 51.415C0.0244141 50.8685 0.467451 50.4255 1.01389 50.4255H10.2902C10.8367 50.4255 11.2797 50.8685 11.2797 51.415ZM23.0297 7.75438C26.8488 7.75438 29.956 10.8616 29.956 14.6807V16.4123C29.956 16.9587 29.513 17.4018 28.9666 17.4018H17.0929C16.5464 17.4018 16.1034 16.9587 16.1034 16.4123V14.6807C16.1034 10.8616 19.2106 7.75438 23.0297 7.75438ZM18.0823 14.6807V15.4228H27.9771V14.6807C27.9771 11.9527 25.7577 9.73333 23.0297 9.73333C20.3017 9.73333 18.0823 11.9527 18.0823 14.6807ZM8.24942 48.4465C8.79586 48.4465 9.23964 48.0034 9.2389 47.4557L9.18695 8.78269C9.18238 5.34451 11.9633 2.55964 15.4017 2.55964H15.8256C17.8095 2.55964 19.6278 3.47366 20.8141 5.06734C21.1404 5.50555 21.7603 5.59646 22.1987 5.27018C22.637 4.9439 22.7278 4.32399 22.4015 3.88566C20.8609 1.81629 18.4025 0.580811 15.8256 0.580811H15.4017C10.8688 0.580811 7.20194 4.25213 7.208 8.78541L7.25995 47.4584C7.26069 48.0044 7.70348 48.4465 8.24942 48.4465ZM54.9403 34.9649V28.5132C54.9403 25.5918 52.5634 23.2149 49.642 23.2149H22.6385C19.7171 23.2149 17.3402 25.5918 17.3402 28.5132V30.8834C17.3402 31.4298 17.7833 31.8728 18.3297 31.8728C18.8761 31.8728 19.3192 31.4298 19.3192 30.8834V28.5132C19.3192 26.6829 20.8082 25.1939 22.6385 25.1939H35.2745V36.3255C35.2745 36.8719 35.7175 37.3149 36.2639 37.3149C36.8104 37.3149 37.2534 36.8719 37.2534 36.3255V25.1939H49.642C51.4723 25.1939 52.9613 26.6829 52.9613 28.5132V34.9912C50.7393 35.2306 49.0034 37.1168 49.0034 39.4015V40.2834C49.0034 40.8298 49.4465 41.2728 49.9929 41.2728C50.5393 41.2728 50.9824 40.8298 50.9824 40.2834V39.4015C50.9824 38.0464 52.0848 36.9439 53.4399 36.9439H54.9565C56.3116 36.9439 57.414 38.0464 57.414 39.4015V47.968C57.414 49.3231 56.3116 50.4256 54.9565 50.4256H50.9824C50.9824 43.9495 50.9872 44.348 50.9738 44.2414C51.0493 43.6372 50.5768 43.1282 49.9929 43.1282H27.8534C27.307 43.1282 26.8639 43.5713 26.8639 44.1177C26.8639 44.6641 27.307 45.1072 27.8534 45.1072H49.0034V51.4151C49.0034 51.9615 49.4465 52.4046 49.9929 52.4046H54.9565C57.4027 52.4046 59.3929 50.4144 59.3929 47.968V39.4015C59.3929 36.9872 57.4413 34.9649 54.9403 34.9649ZM44.9218 50.4255C44.0271 50.4255 18.9768 50.4255 17.5715 50.4255C16.2164 50.4255 15.1139 49.323 15.1139 47.9679V39.4015C15.1139 38.0464 16.2164 36.9439 17.5715 36.9439H19.088C20.4431 36.9439 21.5456 38.0464 21.5456 39.4015V44.9834C21.5456 45.5298 21.9887 45.9729 22.5351 45.9729C23.0815 45.9729 23.5246 45.5298 23.5246 44.9834V39.4015C23.5246 36.9551 21.5344 34.9649 19.088 34.9649H17.5715C15.1252 34.9649 13.135 36.9551 13.135 39.4015V47.968C13.135 50.4144 15.1252 52.4046 17.5715 52.4046H44.9218C45.4683 52.4046 45.9113 51.9615 45.9113 51.4151C45.9113 50.8686 45.4683 50.4255 44.9218 50.4255Z" fill="white"/>
</svg>
