<svg width="53" height="53" viewBox="0 0 53 53" fill="none" xmlns="http://www.w3.org/2000/svg">
<path d="M45.5404 10.9155H37.6446C37.2119 10.9155 36.797 11.0874 36.4911 11.3933C36.1851 11.6992 36.0132 12.1142 36.0132 12.5469V13.4523L31.9348 9.2352C31.7827 9.07731 31.6002 8.95173 31.3984 8.86595C31.1966 8.78017 30.9796 8.73596 30.7603 8.73596C30.541 8.73596 30.3239 8.78017 30.1221 8.86595C29.9203 8.95173 29.7379 9.07731 29.5857 9.2352L9.19375 30.3042C8.97105 30.5346 8.82113 30.8254 8.7627 31.1405C8.70427 31.4555 8.73992 31.7808 8.8652 32.0758C8.99048 32.3707 9.19984 32.6222 9.46715 32.7989C9.73446 32.9756 10.0479 33.0696 10.3683 33.0693H13.4924V51.1529C13.4924 51.5856 13.6642 52.0005 13.9702 52.3064C14.2761 52.6124 14.6911 52.7842 15.1237 52.7842H46.3968C46.8295 52.7842 47.2444 52.6124 47.5504 52.3064C47.8563 52.0005 48.0282 51.5856 48.0282 51.1529V33.0693H51.1522C51.4727 33.0696 51.7861 32.9756 52.0534 32.7989C52.3207 32.6222 52.5301 32.3707 52.6553 32.0758C52.7806 31.7808 52.8163 31.4555 52.7578 31.1405C52.6994 30.8254 52.5495 30.5346 52.3268 30.3042L47.1717 24.9778V12.5469C47.1717 12.1142 46.9998 11.6992 46.6939 11.3933C46.388 11.0874 45.973 10.9155 45.5404 10.9155ZM47.3022 29.8066H46.3968C45.9642 29.8066 45.5492 29.9785 45.2433 30.2844C44.9373 30.5903 44.7655 31.0053 44.7655 31.438V49.5215H16.7551V31.438C16.7551 31.0053 16.5832 30.5903 16.2773 30.2844C15.9713 29.9785 15.5564 29.8066 15.1237 29.8066H14.2183L30.7603 12.7181L36.47 18.6237C36.6958 18.8579 36.9865 19.0193 37.3047 19.0871C37.6229 19.1549 37.9541 19.126 38.2558 19.0041C38.5574 18.8822 38.8157 18.6729 38.9975 18.4031C39.1793 18.1332 39.2763 17.8152 39.276 17.4899V14.1782H43.909V25.5977C43.9086 26.0205 44.0723 26.427 44.3658 26.7315L47.3022 29.8066Z" fill="white" stroke="white" stroke-width="0.204719"/>
<path d="M2.21143 49.5216C1.77877 49.5216 1.36383 49.6934 1.05789 49.9994C0.751953 50.3053 0.580078 50.7203 0.580078 51.1529C0.580078 51.5856 0.751953 52.0005 1.05789 52.3065C1.36383 52.6124 1.77877 52.7843 2.21143 52.7843H7.1055C7.53816 52.7843 7.95311 52.6124 8.25904 52.3065C8.56498 52.0005 8.73686 51.5856 8.73686 51.1529C8.73686 50.7203 8.56498 50.3053 8.25904 49.9994C7.95311 49.6934 7.53816 49.5216 7.1055 49.5216H6.28982V12.0004H7.1055C7.53816 12.0004 7.95311 11.8285 8.25904 11.5226C8.56498 11.2166 8.73686 10.8017 8.73686 10.369C8.73686 9.93636 8.56498 9.52142 8.25904 9.21548C7.95311 8.90955 7.53816 8.73767 7.1055 8.73767H2.21143C1.77877 8.73767 1.36383 8.90955 1.05789 9.21548C0.751953 9.52142 0.580078 9.93636 0.580078 10.369C0.580078 10.8017 0.751953 11.2166 1.05789 11.5226C1.36383 11.8285 1.77877 12.0004 2.21143 12.0004H3.02711V49.5216H2.21143Z" fill="white" stroke="white" stroke-width="0.204719"/>
<path d="M51.1516 0.580872C50.7189 0.580872 50.304 0.752746 49.998 1.05868C49.6921 1.36462 49.5202 1.77956 49.5202 2.21223V3.02791H11.999V2.21223C11.999 1.77956 11.8272 1.36462 11.5212 1.05868C11.2153 0.752746 10.8003 0.580872 10.3677 0.580872C9.93502 0.580872 9.52008 0.752746 9.21414 1.05868C8.9082 1.36462 8.73633 1.77956 8.73633 2.21223V7.1063C8.73633 7.53896 8.9082 7.9539 9.21414 8.25984C9.52008 8.56578 9.93502 8.73765 10.3677 8.73765C10.8003 8.73765 11.2153 8.56578 11.5212 8.25984C11.8272 7.9539 11.999 7.53896 11.999 7.1063V6.29062H49.5202V7.1063C49.5202 7.53896 49.6921 7.9539 49.998 8.25984C50.304 8.56578 50.7189 8.73765 51.1516 8.73765C51.5842 8.73765 51.9992 8.56578 52.3051 8.25984C52.6111 7.9539 52.7829 7.53896 52.7829 7.1063V2.21223C52.7829 1.77956 52.6111 1.36462 52.3051 1.05868C51.9992 0.752746 51.5842 0.580872 51.1516 0.580872Z" fill="white" stroke="white" stroke-width="0.204719"/>
</svg>
