<svg width="247" height="53" viewBox="0 0 247 53" fill="none" xmlns="http://www.w3.org/2000/svg">
<g clip-path="url(#clip0_156_2345)">
<path d="M45.323 5.50515L46.0318 51.9769L0.449219 52.6065C0.0552501 52.3322 0.405035 49.8487 0.486038 49.2633C1.8815 39.0661 9.95233 30.6013 20.2415 29.3587L0.00738481 29.193C-0.32215 16.6541 10.4236 5.93593 22.8925 5.85677L23.4191 26.3542C24.358 15.0322 34.0562 6.11451 45.3211 5.50515H45.323ZM43.5556 28.8303L23.2442 29.0052L23.5995 49.6793L24.7077 44.694C26.8249 38.2285 31.7016 32.9854 37.9885 30.4154L43.5556 28.8303Z" fill="white"/>
<path d="M174.791 25.6472C177.86 29.169 183.678 29.7434 187.334 26.7979C195.399 20.3011 187.896 7.83029 178.205 11.6558C175.462 12.7383 172.672 16.157 172.672 19.1965V39.6055H169.405L169.14 39.3404V18.843C169.14 15.7612 171.691 11.8178 174.101 10.0229C183.411 3.08794 196.064 10.7482 194.201 22.1788C192.807 30.7247 181.682 35.3584 174.793 29.9754V25.6454L174.791 25.6472Z" fill="white"/>
<path d="M120.568 40.3143H117.035V19.1983C117.035 17.3757 114.982 14.7266 113.587 13.6367C107.444 8.84099 98.3769 13.7656 99.0231 21.4922C99.6729 29.2666 109.861 32.2619 114.916 26.5309V30.8609C108.489 35.9935 97.5006 31.8145 95.7498 23.8836C93.224 12.4364 105.338 3.84274 115.076 10.38C117.462 11.9817 120.568 16.0392 120.568 19.0216V40.3143Z" fill="white"/>
<path d="M217.182 30.7725C210.832 34.83 202.058 30.6805 199.739 23.9278C196.427 14.2884 204.244 5.53091 214.189 7.52837C219.492 8.5943 224.353 13.6975 224.071 19.2885L207.29 18.9351V15.4004H219.831C217.215 10.8071 210.183 9.51662 206.051 12.8359C199.181 18.357 204.161 29.2427 212.673 28.4731C214.636 28.2964 215.516 27.306 217.18 26.5328V30.7744L217.182 30.7725Z" fill="white"/>
<path d="M75.703 32.5399H72.1701V19.1983C72.1701 17.0886 69.8008 14.2774 68.0924 13.2059C59.5539 7.85423 49.9183 18.4288 56.0064 26.0026C59.6165 30.4927 66.4613 30.8038 70.2261 26.3542V30.6842C64.2631 35.7542 54.1028 32.3742 51.3689 25.3416C46.7941 13.5741 60.4358 3.19288 70.7415 10.7317C72.8936 12.3057 75.7011 16.2822 75.7011 19.0216V32.538L75.703 32.5399Z" fill="white"/>
<path d="M150.206 8.20769C153.671 7.89472 157.124 9.21286 159.687 11.5159C169.982 20.7705 159.425 37.1312 146.795 32.365C134.48 27.7183 136.886 9.40985 150.208 8.20585L150.206 8.20769ZM151.095 11.7313C147.247 11.8381 143.295 14.8886 142.512 18.7105C140.659 27.7588 152.087 33.6205 158.01 26.2621C162.629 20.5238 158.361 11.5288 151.095 11.7313Z" fill="white"/>
<path d="M246.503 0.733334V4.26801C243.22 4.58281 239.796 7.70695 239.13 10.9379C238.896 12.0719 239.06 13.4195 238.887 14.583C238.034 20.3176 232.915 25.1078 227.073 25.2938V22.0242C227.528 21.6431 228.226 21.6965 228.831 21.4866C231.845 20.4391 234.163 18.171 234.901 15.0138C235.38 12.9666 235.229 11.0133 235.897 8.94224C237.294 4.62884 241.86 0.703879 246.503 0.733334Z" fill="white"/>
<path d="M132.224 0.733337H128.868V32.538H132.224V0.733337Z" fill="white"/>
<path d="M92.6598 8.15431V11.689C89.3369 11.8123 86.163 13.3992 84.5062 16.343C84.2558 16.7885 83.4752 18.6313 83.4752 19.0234V32.5399H79.9424V19.0234C79.9424 18.5337 80.4468 16.921 80.6456 16.3687C82.4148 11.4625 87.4941 8.1856 92.6598 8.15615V8.15431Z" fill="white"/>
<path d="M112.088 44.7308L112.88 44.9112L116.504 49.5026V44.7308H117.211V50.7397L116.541 50.6992L112.795 45.9679V50.7397H112.088V44.7308Z" fill="white"/>
<path d="M102.148 44.7713C107.292 43.7201 107.77 51.3509 102.461 50.7379C99.1288 50.3531 99.1049 45.3917 102.148 44.7713ZM102.503 45.3033C99.8155 45.7396 99.9941 49.9426 102.636 50.2132C106.69 50.6293 106.491 44.6571 102.503 45.3033Z" fill="white"/>
<path d="M177.04 44.7713C178.897 44.3902 180.946 45.25 181.151 47.2934C181.62 52.0229 174.704 51.7283 174.807 47.6635C174.836 46.5239 175.895 45.0069 177.04 44.7713ZM177.393 45.3033C174.81 45.7802 174.857 49.8248 177.544 50.193C181.615 50.7489 181.495 44.5467 177.393 45.3033Z" fill="white"/>
<path d="M145.736 44.7308C147.807 45.0751 148.074 47.8733 146.174 48.7091L147.413 50.7379C146.411 50.8668 146.174 49.3222 145.572 48.9595C145.055 48.6484 144.106 48.7736 143.517 48.873L143.352 50.7397H142.823V44.7308C143.718 44.8339 144.885 44.589 145.738 44.7308H145.736ZM143.352 48.2655C148.079 49.035 148.039 44.5246 143.352 45.261V48.2655Z" fill="white"/>
<path d="M191.218 44.7308V45.261H187.685V47.3818H190.865V47.912H187.685V50.2095H191.395V50.7397H187.244L186.979 50.4746V44.9959L187.244 44.7308H191.218Z" fill="white"/>
<path d="M167.372 50.7397C167.142 51.5093 168.368 51.3123 167.996 52.1481C167.694 52.8256 166.884 52.7317 166.314 52.5034C166.606 51.8038 167.617 52.8256 167.549 51.7118L166.842 51.443L167.021 50.7397C162.56 50.1396 163.655 43.8195 168.304 44.7713C168.749 44.8615 170.08 45.6439 169.141 45.8814C164.163 42.8309 163.234 51.4411 168.261 50.1248C168.539 50.0512 169.39 49.2449 169.491 49.7695C169.6 50.3421 167.867 50.9441 167.372 50.7397Z" fill="white"/>
<path d="M153.95 44.7308V48.5306C153.95 49.9076 155.563 50.5501 156.73 50.0751C156.977 49.9739 157.658 49.2614 157.658 49.0608V44.7308H158.365V48.7073C158.365 48.7552 158.103 49.5192 158.048 49.6278C157.365 50.9919 154.909 51.1834 153.972 50.0972C153.86 49.9665 153.418 49.1583 153.418 49.0608V44.7308H153.948H153.95Z" fill="white"/>
<path d="M127.278 45.0861L126.996 45.5979C126.118 45.1579 123.91 44.8928 123.783 46.2606C123.643 47.7574 127.276 47.148 127.467 48.8767C127.668 50.7011 125.783 50.9459 124.376 50.7269C123.923 50.6569 122.502 49.7861 123.308 49.6775C123.546 49.6462 124.133 50.1285 124.551 50.1967C125.317 50.32 126.911 50.3182 126.911 49.2357C126.911 47.5935 123.047 48.4827 123.205 46.2349C123.343 44.2816 125.958 44.5522 127.278 45.0861Z" fill="white"/>
<path d="M200.932 45.0861L200.65 45.5979C199.807 45.1321 197.554 44.9683 197.438 46.2607C197.292 47.877 201.184 46.94 201.125 49.2375C201.083 50.8428 199.292 50.9238 198.03 50.7269C197.578 50.6569 196.156 49.7861 196.963 49.6775C197.2 49.6462 197.787 50.1285 198.205 50.1967C199.036 50.331 200.711 50.2961 200.584 49.0663C200.448 47.75 196.941 48.3833 196.858 46.4061C196.771 44.37 199.621 44.5007 200.932 45.0861Z" fill="white"/>
<path d="M91.5535 44.7731C92.5882 44.5964 93.8824 44.694 94.5985 45.5261L94.1604 45.9624C92.1887 44.0349 88.9743 46.1815 90.0992 48.7957C90.7527 50.3163 93.0466 50.7747 94.1604 49.5081L94.5985 49.9444C93.9026 50.7655 92.8754 50.8483 91.8628 50.7397C88.457 50.3734 88.4828 45.2996 91.5535 44.775V44.7731Z" fill="white"/>
<path d="M137.346 44.7308L137.348 45.261H135.227V50.7397H134.52V45.261H132.399L132.401 44.7308H137.346Z" fill="white"/>
<path d="M179.383 43.3188L178.864 44.1325L177.35 43.652L176.735 44.2006C176.785 42.1571 178.256 43.8287 178.591 43.8066C178.81 43.7919 178.996 43.1954 179.383 43.3188Z" fill="white"/>
</g>
<defs>
<clipPath id="clip0_156_2345">
<rect width="246.503" height="51.9394" fill="white" transform="translate(0 0.733337)"/>
</clipPath>
</defs>
</svg>
